<svg xmlns="http://www.w3.org/2000/svg" viewBox="0 0 1200 900" role="img" aria-labelledby="title desc">
  <title id="title">Illustrasjon av Grendel sitt programvareverksted</title>
  <desc id="desc">Varm, glasert illustrasjon med appkort, kodepanel og myke former i grønt og krem.</desc>
  <defs>
    <linearGradient id="bg" x1="0" y1="0" x2="1" y2="1">
      <stop offset="0%" stop-color="#fff8ef"/>
      <stop offset="42%" stop-color="#eefbf7"/>
      <stop offset="100%" stop-color="#e6f7f3"/>
    </linearGradient>
    <linearGradient id="panel" x1="0" y1="0" x2="1" y2="1">
      <stop offset="0%" stop-color="#fffdf9" stop-opacity="0.98"/>
      <stop offset="100%" stop-color="#dff8f2" stop-opacity="0.94"/>
    </linearGradient>
    <linearGradient id="panelWarm" x1="0" y1="0" x2="1" y2="1">
      <stop offset="0%" stop-color="#fff7ed"/>
      <stop offset="100%" stop-color="#f4e7d6"/>
    </linearGradient>
    <linearGradient id="green" x1="0" y1="0" x2="1" y2="1">
      <stop offset="0%" stop-color="#8af0df"/>
      <stop offset="100%" stop-color="#1b8f7e"/>
    </linearGradient>
    <linearGradient id="line" x1="0" y1="0" x2="1" y2="0">
      <stop offset="0%" stop-color="#1b8f7e" stop-opacity="0.2"/>
      <stop offset="100%" stop-color="#1b8f7e" stop-opacity="0.85"/>
    </linearGradient>
    <filter id="shadow" x="-20%" y="-20%" width="140%" height="140%">
      <feDropShadow dx="0" dy="18" stdDeviation="22" flood-color="#17312c" flood-opacity="0.16"/>
    </filter>
    <filter id="softGlow" x="-30%" y="-30%" width="160%" height="160%">
      <feGaussianBlur stdDeviation="16" result="blur"/>
      <feColorMatrix in="blur" type="matrix" values="1 0 0 0 0.07 0 1 0 0 0.46 0 0 1 0 0.41 0 0 0 0.22 0"/>
    </filter>
    <pattern id="grid" width="52" height="52" patternUnits="userSpaceOnUse">
      <path d="M52 0H0V52" fill="none" stroke="#157266" stroke-opacity="0.07" stroke-width="1"/>
    </pattern>
  </defs>

  <rect width="1200" height="900" fill="url(#bg)"/>
  <rect width="1200" height="900" fill="url(#grid)" opacity="0.55"/>

  <circle cx="180" cy="170" r="150" fill="#8af0df" opacity="0.15" filter="url(#softGlow)"/>
  <circle cx="980" cy="150" r="180" fill="#fff0d7" opacity="0.75" filter="url(#softGlow)"/>
  <circle cx="980" cy="720" r="220" fill="#53cbb7" opacity="0.10" filter="url(#softGlow)"/>
  <path d="M126 670c82-88 164-124 263-108 65 11 128 46 183 102 23 24 45 50 68 71 35 32 77 54 129 66 78 17 173 3 233-44" fill="none" stroke="#1b8f7e" stroke-opacity="0.11" stroke-width="12" stroke-linecap="round"/>

  <g filter="url(#shadow)">
    <rect x="135" y="135" width="930" height="630" rx="42" fill="url(#panel)" stroke="#0f5c51" stroke-opacity="0.12"/>
  </g>

  <g opacity="0.95">
    <rect x="175" y="175" width="860" height="70" rx="24" fill="url(#panelWarm)" stroke="#0f5c51" stroke-opacity="0.08"/>
    <circle cx="217" cy="210" r="12" fill="#f1b48d"/>
    <circle cx="255" cy="210" r="12" fill="#8ee0d5"/>
    <circle cx="293" cy="210" r="12" fill="#77c8b8"/>
    <rect x="350" y="198" width="176" height="24" rx="12" fill="#1b8f7e" fill-opacity="0.12"/>
    <rect x="544" y="198" width="108" height="24" rx="12" fill="#1b8f7e" fill-opacity="0.10"/>
    <rect x="864" y="198" width="128" height="24" rx="12" fill="#1b8f7e" fill-opacity="0.10"/>
  </g>

  <g>
    <rect x="175" y="280" width="355" height="410" rx="34" fill="#fffdf9" stroke="#0f5c51" stroke-opacity="0.10"/>
    <rect x="208" y="314" width="165" height="28" rx="14" fill="#1b8f7e" fill-opacity="0.14"/>
    <rect x="208" y="358" width="280" height="16" rx="8" fill="#1b8f7e" fill-opacity="0.10"/>
    <rect x="208" y="388" width="226" height="16" rx="8" fill="#1b8f7e" fill-opacity="0.10"/>
    <rect x="208" y="418" width="250" height="16" rx="8" fill="#1b8f7e" fill-opacity="0.10"/>
    <rect x="208" y="452" width="145" height="16" rx="8" fill="#1b8f7e" fill-opacity="0.08"/>

    <rect x="208" y="522" width="276" height="120" rx="24" fill="url(#panelWarm)" stroke="#0f5c51" stroke-opacity="0.08"/>
    <path d="M232 615c38-68 73-78 108-56 30 18 54 16 91-16 18-16 31-26 53-35" fill="none" stroke="url(#line)" stroke-width="7" stroke-linecap="round" stroke-linejoin="round"/>
    <circle cx="253" cy="592" r="7" fill="#1b8f7e"/>
    <circle cx="347" cy="562" r="7" fill="#1b8f7e"/>
    <circle cx="427" cy="549" r="7" fill="#1b8f7e"/>
    <circle cx="470" cy="542" r="7" fill="#f2a77e"/>
  </g>

  <g filter="url(#shadow)">
    <rect x="602" y="282" width="370" height="150" rx="34" fill="url(#panelWarm)" stroke="#0f5c51" stroke-opacity="0.10"/>
    <rect x="628" y="312" width="108" height="22" rx="11" fill="#1b8f7e" fill-opacity="0.18"/>
    <rect x="628" y="350" width="290" height="16" rx="8" fill="#1b8f7e" fill-opacity="0.11"/>
    <rect x="628" y="378" width="238" height="16" rx="8" fill="#1b8f7e" fill-opacity="0.11"/>
    <rect x="628" y="404" width="173" height="16" rx="8" fill="#1b8f7e" fill-opacity="0.11"/>
  </g>

  <g filter="url(#shadow)">
    <rect x="655" y="470" width="317" height="170" rx="32" fill="#fffdf9" stroke="#0f5c51" stroke-opacity="0.10"/>
    <rect x="680" y="498" width="110" height="22" rx="11" fill="#8af0df" fill-opacity="0.45"/>
    <rect x="680" y="534" width="248" height="16" rx="8" fill="#1b8f7e" fill-opacity="0.10"/>
    <rect x="680" y="562" width="216" height="16" rx="8" fill="#1b8f7e" fill-opacity="0.10"/>
    <rect x="680" y="590" width="178" height="16" rx="8" fill="#1b8f7e" fill-opacity="0.10"/>
  </g>

  <g filter="url(#shadow)">
    <rect x="545" y="610" width="275" height="112" rx="28" fill="url(#green)" opacity="0.88"/>
    <path d="M585 694h196" stroke="#fffdf9" stroke-opacity="0.88" stroke-width="11" stroke-linecap="round"/>
    <circle cx="605" cy="638" r="13" fill="#fffdf9" fill-opacity="0.92"/>
    <circle cx="638" cy="638" r="13" fill="#fffdf9" fill-opacity="0.68"/>
    <circle cx="671" cy="638" r="13" fill="#fffdf9" fill-opacity="0.46"/>
    <path d="M745 650c18 0 31 13 31 31" fill="none" stroke="#fffdf9" stroke-opacity="0.85" stroke-width="8" stroke-linecap="round"/>
  </g>

  <g opacity="0.95">
    <path d="M835 255l22-25 22 25-22 25z" fill="#f2a77e" fill-opacity="0.85"/>
    <path d="M870 248l12-14 12 14-12 14z" fill="#8af0df" fill-opacity="0.92"/>
    <path d="M914 667l20-20 20 20-20 20z" fill="#fff7ed" fill-opacity="0.88"/>
    <circle cx="883" cy="705" r="11" fill="#1b8f7e" fill-opacity="0.78"/>
  </g>

  <g opacity="0.9">
    <path d="M300 750c54 28 118 38 190 28" fill="none" stroke="#1b8f7e" stroke-opacity="0.16" stroke-width="8" stroke-linecap="round"/>
    <path d="M785 748c46-8 92-8 140 0" fill="none" stroke="#1b8f7e" stroke-opacity="0.14" stroke-width="8" stroke-linecap="round"/>
    <circle cx="476" cy="748" r="8" fill="#f2a77e" fill-opacity="0.95"/>
    <circle cx="808" cy="748" r="8" fill="#8af0df" fill-opacity="0.92"/>
  </g>
</svg>
