<svg xmlns="http://www.w3.org/2000/svg" viewBox="0 0 1200 630" role="img" aria-label="Grendel sine Shiny-apper">
  <defs>
    <linearGradient id="bg" x1="0" x2="1" y1="0" y2="1">
      <stop offset="0" stop-color="#031512"/>
      <stop offset=".45" stop-color="#083a34"/>
      <stop offset="1" stop-color="#0b5b50"/>
    </linearGradient>
    <radialGradient id="glow" cx=".28" cy=".2" r=".88">
      <stop offset="0" stop-color="#b6fff4" stop-opacity=".65"/>
      <stop offset=".42" stop-color="#76e9d9" stop-opacity=".22"/>
      <stop offset="1" stop-color="#76e9d9" stop-opacity="0"/>
    </radialGradient>
    <filter id="blur" x="-20%" y="-20%" width="140%" height="140%">
      <feGaussianBlur stdDeviation="20"/>
    </filter>
  </defs>

  <rect width="1200" height="630" fill="url(#bg)"/>
  <circle cx="200" cy="120" r="190" fill="url(#glow)"/>
  <circle cx="1020" cy="140" r="160" fill="#b6fff4" fill-opacity=".08" filter="url(#blur)"/>
  <circle cx="980" cy="500" r="210" fill="#76e9d9" fill-opacity=".07" filter="url(#blur)"/>

  <g fill="none" stroke="rgba(255,255,255,.08)" stroke-width="1">
    <path d="M0 84H1200M0 168H1200M0 252H1200M0 336H1200M0 420H1200M0 504H1200M0 588H1200"/>
    <path d="M84 0V630M168 0V630M252 0V630M336 0V630M420 0V630M504 0V630M588 0V630M672 0V630M756 0V630M840 0V630M924 0V630M1008 0V630M1092 0V630"/>
  </g>

  <g transform="translate(88 82)">
    <rect width="320" height="58" rx="29" fill="#f3fffd" fill-opacity=".96"/>
    <text x="26" y="38" fill="#041716" font-family="Avenir Next, Avenir, Segoe UI, Arial, sans-serif" font-size="24" font-weight="700" letter-spacing=".2em">OFFISIELL STARTSIDE</text>
  </g>

  <text x="86" y="250" fill="#f7fffe" font-family="Avenir Next, Avenir, Segoe UI, Arial, sans-serif" font-size="78" font-weight="800" letter-spacing="-2">Grendel sine</text>
  <text x="86" y="332" fill="#f7fffe" font-family="Avenir Next, Avenir, Segoe UI, Arial, sans-serif" font-size="78" font-weight="800" letter-spacing="-2">Shiny-apper</text>
  <text x="88" y="392" fill="#d8fffb" font-family="Avenir Next, Avenir, Segoe UI, Arial, sans-serif" font-size="30">Et kuratert utvalg av verktøy, tester og faglige sider.</text>

  <g transform="translate(720 110)">
    <rect width="400" height="410" rx="36" fill="#071f1b" fill-opacity=".92" stroke="#76e9d9" stroke-opacity=".38"/>
    <text x="30" y="58" fill="#b6fff4" font-family="Avenir Next, Avenir, Segoe UI, Arial, sans-serif" font-size="28" font-weight="700">Mest besøkte innganger</text>

    <g transform="translate(28 92)">
      <rect width="344" height="54" rx="18" fill="#0a342f"/>
      <rect x="10" y="11" width="82" height="32" rx="16" fill="#76e9d9"/>
      <text x="26" y="34" fill="#041716" font-family="Avenir Next, Avenir, Segoe UI, Arial, sans-serif" font-size="19" font-weight="700">246</text>
      <text x="108" y="34" fill="#f7fffe" font-family="Avenir Next, Avenir, Segoe UI, Arial, sans-serif" font-size="18">/adhd-test</text>
      <text x="250" y="34" fill="#b6fff4" font-family="Avenir Next, Avenir, Segoe UI, Arial, sans-serif" font-size="16">ADHD-test</text>
    </g>

    <g transform="translate(28 158)">
      <rect width="344" height="54" rx="18" fill="#0a342f"/>
      <rect x="10" y="11" width="82" height="32" rx="16" fill="#76e9d9"/>
      <text x="26" y="34" fill="#041716" font-family="Avenir Next, Avenir, Segoe UI, Arial, sans-serif" font-size="19" font-weight="700">124</text>
      <text x="108" y="34" fill="#f7fffe" font-family="Avenir Next, Avenir, Segoe UI, Arial, sans-serif" font-size="18">/STYRK</text>
      <text x="216" y="34" fill="#b6fff4" font-family="Avenir Next, Avenir, Segoe UI, Arial, sans-serif" font-size="16">Yrkestilpasning</text>
    </g>

    <g transform="translate(28 224)">
      <rect width="344" height="54" rx="18" fill="#0a342f"/>
      <rect x="10" y="11" width="82" height="32" rx="16" fill="#76e9d9"/>
      <text x="31" y="34" fill="#041716" font-family="Avenir Next, Avenir, Segoe UI, Arial, sans-serif" font-size="19" font-weight="700">84</text>
      <text x="108" y="34" fill="#f7fffe" font-family="Avenir Next, Avenir, Segoe UI, Arial, sans-serif" font-size="18">/PF</text>
      <text x="200" y="34" fill="#b6fff4" font-family="Avenir Next, Avenir, Segoe UI, Arial, sans-serif" font-size="16">ICD-10 til ICD-11</text>
    </g>

    <g transform="translate(28 290)">
      <rect width="344" height="54" rx="18" fill="#0a342f"/>
      <rect x="10" y="11" width="82" height="32" rx="16" fill="#76e9d9"/>
      <text x="31" y="34" fill="#041716" font-family="Avenir Next, Avenir, Segoe UI, Arial, sans-serif" font-size="19" font-weight="700">67</text>
      <text x="108" y="34" fill="#f7fffe" font-family="Avenir Next, Avenir, Segoe UI, Arial, sans-serif" font-size="18">/WISC</text>
      <text x="206" y="34" fill="#b6fff4" font-family="Avenir Next, Avenir, Segoe UI, Arial, sans-serif" font-size="16">Prosentil og IQ</text>
    </g>
  </g>
</svg>

